<?xml version="1.0" encoding="utf-8"?>
<!-- Generator: Adobe Illustrator 16.0.0, SVG Export Plug-In . SVG Version: 6.00 Build 0)  -->
<!DOCTYPE svg PUBLIC "-//W3C//DTD SVG 1.1//EN" "http://www.w3.org/Graphics/SVG/1.1/DTD/svg11.dtd">
<svg version="1.1" id="Layer_1" xmlns="http://www.w3.org/2000/svg" xmlns:xlink="http://www.w3.org/1999/xlink" x="0px" y="0px"
	 width="64px" height="64px" viewBox="0 0 64 64" enable-background="new 0 0 64 64" xml:space="preserve">
<path fill="#fff" d="M58.481,34.351l-10.788-5.752V16.091l-0.054,0.031l0.056-0.036l-11.064-5.899l-10.018,5.645l-10.587-5.645
	L5.519,16.107l0.046,0.027v12.633l-0.046,0.021l0.046,0.027v0.235v12.682l10.754,6.486v0.011l0.007-0.005l0.01,0.005V48.22
	l10.754-6.486V29.606l9.834,5.932v0.011l0.007-0.005l0.01,0.005v-0.011l0.016-0.01v11.788l10.754,6.486v0.011l0.007-0.005
	l0.01,0.005v-0.011l10.754-6.486V34.355l-0.054,0.031L58.481,34.351z M26.169,28.001l-9.497-4.117l-0.002-1.043l9.499-5.705V28.001z
	 M22.13,30.981l-5.438,3.151l-0.018-9.159l8.965,3.888L22.13,30.981z M16.536,11.401l9.199,4.72l-9.199,5.559V11.401z
	 M15.536,11.426v10.11l-8.68-5.23L15.536,11.426z M6.391,17.08l9.119,5.499v1.266l-9.119,4.193V17.08z M7.47,28.643l8.04-3.697
	v9.141L6.959,28.93L7.47,28.643z M15.51,46.768l-8.6-5.186l8.6-3.955V46.768z M15.51,36.526L6.391,40.72V29.762l9.119,5.499V36.526z
	 M16.691,46.814l-0.018-9.159l9.051,3.925L16.691,46.814z M26.263,40.724l-9.591-4.158l-0.002-1.043l9.593-5.761V40.724z
	 M36.114,34.086l-8.6-5.186l8.6-3.955V34.086z M36.114,23.845l-9.025,4.15V17.137l9.025,5.442V23.845z M36.141,21.536l-8.68-5.23
	l8.68-4.88V21.536z M37.278,24.974l9.051,3.925l-9.033,5.234L37.278,24.974z M46.867,28.042l-9.591-4.158l-0.002-1.043l9.593-5.761
	V28.042z M37.141,11.401l9.199,4.72l-9.199,5.559V11.401z M46.9,52.351l-8.6-5.186l8.6-3.955V52.351z M46.9,42.109l-9.119,4.193
	V35.345l9.119,5.499V42.109z M46.927,39.801l-8.531-5.141l4.22-2.546l4.312-2.424V39.801z M47.927,29.666l9.199,4.72l-9.199,5.559
	V29.666z M48.082,52.397l-0.018-9.159l9.051,3.925L48.082,52.397z M57.653,46.307l-9.591-4.158l-0.002-1.043l9.593-5.761V46.307z"/>
</svg>
