<?xml version="1.0" encoding="utf-8"?>
<!-- Generator: Adobe Illustrator 16.2.1, SVG Export Plug-In . SVG Version: 6.00 Build 0)  -->
<!DOCTYPE svg PUBLIC "-//W3C//DTD SVG 1.1//EN" "http://www.w3.org/Graphics/SVG/1.1/DTD/svg11.dtd">
<svg version="1.1" id="Layer_1" xmlns="http://www.w3.org/2000/svg" xmlns:xlink="http://www.w3.org/1999/xlink" x="0px" y="0px"
	 width="60px" height="60px" viewBox="0 0 60 60" enable-background="new 0 0 60 60" xml:space="preserve">
<path fill-rule="evenodd" clip-rule="evenodd" fill="#DDDDDD" d="M30,60C13.458,60,0,46.542,0,30C0,13.458,13.458,0,30,0
	s30,13.458,30,30C60,46.542,46.542,60,30,60z M55.301,34.107c-0.877-0.277-7.932-2.381-15.961-1.096
	c3.352,9.211,4.716,16.71,4.979,18.27C50.065,47.395,54.158,41.237,55.301,34.107z M40.01,53.627
	c-0.381-2.248-1.869-10.082-5.467-19.432c-0.057,0.02-0.112,0.038-0.169,0.057c-14.453,5.037-19.642,15.06-20.103,16.003
	c4.345,3.388,9.805,5.41,15.729,5.41C33.55,55.665,36.934,54.938,40.01,53.627z M10.963,47.173
	c0.581-0.994,7.613-12.638,20.828-16.909c0.334-0.108,0.672-0.21,1.011-0.305c-0.644-1.456-1.345-2.913-2.077-4.349
	C17.927,29.44,5.51,29.28,4.389,29.256c-0.008,0.261-0.013,0.521-0.013,0.783C4.375,36.621,6.871,42.631,10.963,47.173z
	 M4.917,24.792c1.146,0.015,11.703,0.06,23.689-3.122c-4.246-7.548-8.825-13.894-9.5-14.819C11.937,10.231,6.579,16.84,4.917,24.792
	z M23.995,5.127c0.708,0.948,5.362,7.286,9.562,15.001c9.112-3.416,12.969-8.6,13.43-9.256C42.462,6.857,36.512,4.415,30,4.415
	C27.933,4.415,25.922,4.663,23.995,5.127z M49.835,13.835c-0.54,0.73-4.833,6.235-14.308,10.104
	c0.596,1.221,1.168,2.462,1.699,3.712c0.189,0.443,0.373,0.883,0.553,1.322c8.525-1.072,16.997,0.646,17.843,0.825
	C55.565,23.749,53.403,18.196,49.835,13.835z"/>
</svg>
