<?xml version="1.0" encoding="utf-8"?>
<!-- Generator: Adobe Illustrator 16.2.0, SVG Export Plug-In . SVG Version: 6.00 Build 0)  -->
<!DOCTYPE svg PUBLIC "-//W3C//DTD SVG 1.1//EN" "http://www.w3.org/Graphics/SVG/1.1/DTD/svg11.dtd">
<svg version="1.1" id="Layer_1" xmlns="http://www.w3.org/2000/svg" xmlns:xlink="http://www.w3.org/1999/xlink" x="0px" y="0px"
	 width="60px" height="60px" viewBox="0 0 60 60" enable-background="new 0 0 60 60" xml:space="preserve">
<path fill="#DD4951" d="M59.417,1.724c0-0.025,0.001-0.048,0-0.072c-0.003-0.047-0.005-0.093-0.011-0.138
	c-0.006-0.03-0.014-0.058-0.02-0.086c-0.02-0.116-0.052-0.228-0.097-0.337c-0.005-0.015-0.008-0.033-0.015-0.049
	c-0.002-0.007-0.004-0.014-0.008-0.021c-0.006-0.01-0.014-0.02-0.018-0.029c-0.062-0.128-0.134-0.249-0.225-0.359
	C59.016,0.619,59,0.609,58.988,0.595c-0.027-0.033-0.062-0.062-0.094-0.096c-0.011-0.01-0.015-0.024-0.025-0.035
	c-0.008-0.007-0.018-0.008-0.023-0.015c-0.043-0.039-0.09-0.074-0.137-0.109c-0.018-0.013-0.029-0.03-0.048-0.043
	c-0.021-0.014-0.043-0.019-0.062-0.032c-0.035-0.021-0.062-0.045-0.099-0.064c-0.058-0.031-0.116-0.049-0.175-0.071
	c-0.025-0.012-0.049-0.025-0.074-0.034c-0.018-0.006-0.031-0.012-0.048-0.018C58.068,0.035,57.93,0.009,57.789,0
	c-0.032-0.002-0.062,0.001-0.098,0.001c-0.006,0-0.014,0-0.021,0c-0.03,0-0.062-0.002-0.092,0c-0.076,0.005-0.151,0.016-0.228,0.029
	c-0.035,0.007-0.072,0.013-0.108,0.022c-0.077,0.02-0.15,0.046-0.224,0.076c-0.028,0.011-0.059,0.021-0.086,0.035
	c-0.029,0.014-0.061,0.023-0.09,0.04c-0.004,0.002-0.01,0.003-0.015,0.005L1.485,30.797c-0.542,0.299-0.886,0.865-0.902,1.485
	c-0.015,0.62,0.3,1.202,0.826,1.528l16.274,10.103l3.334,14.726c0.139,0.61,0.593,1.102,1.192,1.285
	C22.377,59.977,22.549,60,22.721,60c0.438,0,0.867-0.165,1.196-0.473l8.444-7.918l16.979,8.217c0.505,0.242,1.095,0.232,1.591-0.034
	c0.491-0.267,0.828-0.752,0.902-1.308l7.573-56.512c0.002-0.008-0.001-0.016,0-0.023C59.418,1.874,59.418,1.799,59.417,1.724z
	 M48.846,8.618L18.93,40.573L5.786,32.415L48.846,8.618z M23.752,54.891l-2.617-11.56l28.682-30.637L30.641,48.432L23.752,54.891z
	 M48.691,55.627l-14.248-6.895l20.223-37.686L48.691,55.627z"/>
</svg>
