<svg xmlns="http://www.w3.org/2000/svg" xmlns:xlink="http://www.w3.org/1999/xlink" version="1.1" id="Calque_2" x="0px" y="0px" width="100px" height="100px" viewBox="5.0 -10.0 100.0 135.0" enable-background="new 0 0 100 100" xml:space="preserve">
<path fill="#fff" d="M68.014,75.76V59.18h-2.795v-8.166h-2.237V46.93h-3.289v-3.65h-2.475v-1.814c0-0.553-0.448-1-1-1h-0.382v-3.764h-1.072  v-3.176h-0.948V19.666h-0.813v-0.855c0-0.172-0.044-0.34-0.128-0.49l-0.879-1.566c-0.177-0.316-0.511-0.512-0.872-0.512H51V1  c0-0.553-0.447-1-1-1c-0.552,0-1,0.447-1,1v15.242h-0.124c-0.361,0-0.695,0.195-0.872,0.512l-0.879,1.566  c-0.084,0.15-0.128,0.318-0.128,0.49v0.855h-0.812v13.859h-0.949v3.176h-1.072v3.764h-0.382c-0.552,0-1,0.447-1,1v1.814h-2.475v3.65  h-3.289v4.084h-2.237v8.166h-2.794v16.58h-2.176V100h40.377V75.76H68.014z M66.014,75.76h-1.41V64h-2v11.76h-0.976V64h-2v11.76  h-1.41V61.18h7.796V75.76z M53.836,38.701v1.764h-2.929V21.666h0.908v13.859h0.948v3.176H53.836z M48.997,19.07l0.465-0.828h1.076  l0.465,0.828v0.596h-2.006V19.07z M46.164,38.701h1.072v-3.176h0.949V21.666h0.722v18.799h-2.743V38.701z M44.782,42.465h10.436  v0.814H44.782V42.465z M42.308,45.279h15.385v1.65H42.308V45.279z M39.019,48.93h21.963v2.084H39.019V48.93z M33.987,61.18h7.795  v14.58h-1.41V64h-2v11.76h-0.975V64h-2v11.76h-1.41V61.18z M42.958,98h-1.599V79h-2v19h-0.975V79h-2v19H35.41V79h-2v19h-1.599V77.76  h0.176h10.971V98z M53.882,98V55.963c0-0.553-0.447-1-1-1c-0.552,0-1,0.447-1,1V98h-0.975V55.963c0-0.553-0.447-1-1-1  c-0.552,0-1,0.447-1,1V98h-0.975V55.963c0-0.553-0.448-1-1-1c-0.553,0-1,0.447-1,1V98h-0.975V75.76h-1.176V59.18h-1.299v-2.717h-2  v2.717h-3.702v-6.166h26.438v6.166h-3.887v-2.717h-2v2.717h-1.114v16.58h-1.175V98H53.882z M68.188,98H66.59V79h-2v19h-0.975V79h-2  v19h-0.975V79h-2v19h-1.598V77.76h10.971h0.175V98z"/>
</svg>