<svg xmlns:ev="http://www.w3.org/2001/xml-events" xmlns="http://www.w3.org/2000/svg" xmlns:xlink="http://www.w3.org/1999/xlink" version="1.1" id="Layer_1" x="0px" y="0px" width="100px" height="100px" viewBox="5.0 -10.0 100.0 135.0" enable-background="new 0 0 100 100" xml:space="preserve">
<desc/>
<desc/>
<rect fill="#fff" x="9.5" y="35.42" width="3.24" height="3.24"/>
<path fill="#fff" d="M15.98,32.18h3.24h3.24h3.24h3.24h3.24v-3.24V25.7v-3.24v-3.24v-3.24v-3.24V9.5h-3.24H25.7h-3.24h-3.24h-3.24h-3.24H9.5  v3.24v3.24v3.24v3.24v3.24v3.24v3.24h3.24H15.98z M12.74,25.7v-3.24v-3.24v-3.24v-3.24h3.24h3.24h3.24h3.24h3.24v3.24v3.24v3.24  v3.24v3.24H25.7h-3.24h-3.24h-3.24h-3.24V25.7z"/>
<rect fill="#fff" x="12.74" y="38.66" width="3.24" height="3.24"/>
<polygon fill="#fff" points="12.74,54.86 12.74,58.1 12.74,61.34 12.74,64.58 15.98,64.58 19.22,64.58 19.22,61.34 15.98,61.34 15.98,58.1   19.22,58.1 22.46,58.1 22.46,54.86 22.46,51.62 19.22,51.62 19.22,54.86 15.98,54.86 15.98,51.62 19.22,51.62 19.22,48.38   15.98,48.38 15.98,45.14 12.74,45.14 9.5,45.14 9.5,48.38 9.5,51.62 12.74,51.62 "/>
<rect fill="#fff" x="15.98" y="41.9" width="3.24" height="3.24"/>
<polygon fill="#fff" points="22.46,25.7 25.7,25.7 25.7,22.46 25.7,19.22 25.7,15.98 22.46,15.98 19.22,15.98 15.98,15.98 15.98,19.22   15.98,22.46 15.98,25.7 19.22,25.7 "/>
<polygon fill="#fff" points="19.22,74.3 15.98,74.3 15.98,77.54 15.98,80.78 15.98,84.02 19.22,84.02 22.46,84.02 25.7,84.02 25.7,80.78   25.7,77.54 25.7,74.3 22.46,74.3 "/>
<rect fill="#fff" x="22.46" y="38.66" width="3.24" height="3.24"/>
<path fill="#fff" d="M25.7,67.82h-3.24h-3.24h-3.24h-3.24H9.5v3.24v3.24v3.24v3.24v3.24v3.24v3.24h3.24h3.24h3.24h3.24h3.24h3.24h3.24v-3.24  v-3.24v-3.24v-3.24V74.3v-3.24v-3.24h-3.24H25.7z M28.94,74.3v3.24v3.24v3.24v3.24H25.7h-3.24h-3.24h-3.24h-3.24v-3.24v-3.24v-3.24  V74.3v-3.24h3.24h3.24h3.24h3.24h3.24V74.3z"/>
<rect fill="#fff" x="28.94" y="35.42" width="3.24" height="3.24"/>
<polygon fill="#fff" points="38.66,19.22 38.66,15.98 38.66,12.74 35.42,12.74 35.42,15.98 35.42,19.22 35.42,22.46 38.66,22.46 "/>
<polygon fill="#fff" points="35.42,51.62 32.18,51.62 32.18,54.86 28.94,54.86 28.94,51.62 32.18,51.62 32.18,48.38 28.94,48.38 25.7,48.38   25.7,51.62 25.7,54.86 25.7,58.1 28.94,58.1 32.18,58.1 35.42,58.1 35.42,54.86 38.66,54.86 38.66,51.62 38.66,48.38 35.42,48.38   "/>
<polygon fill="#fff" points="35.42,67.82 38.66,67.82 41.9,67.82 41.9,71.06 45.14,71.06 48.38,71.06 48.38,67.82 48.38,64.58 51.62,64.58   51.62,67.82 54.86,67.82 54.86,64.58 54.86,61.34 51.62,61.34 48.38,61.34 45.14,61.34 45.14,58.1 41.9,58.1 41.9,61.34 41.9,64.58   38.66,64.58 38.66,61.34 35.42,61.34 32.18,61.34 28.94,61.34 25.7,61.34 25.7,64.58 28.94,64.58 32.18,64.58 35.42,64.58 "/>
<rect fill="#fff" x="35.42" y="87.26" width="3.24" height="3.24"/>
<rect fill="#fff" x="38.66" y="9.5" width="3.24" height="3.24"/>
<polygon fill="#fff" points="41.9,25.7 45.14,25.7 48.38,25.7 48.38,22.46 51.62,22.46 54.86,22.46 54.86,19.22 51.62,19.22 48.38,19.22   45.14,19.22 45.14,22.46 41.9,22.46 38.66,22.46 38.66,25.7 "/>
<rect fill="#fff" x="38.66" y="77.54" width="3.24" height="3.24"/>
<rect fill="#fff" x="38.66" y="84.02" width="3.24" height="3.24"/>
<rect fill="#fff" x="41.9" y="12.74" width="3.24" height="3.24"/>
<rect fill="#fff" x="41.9" y="28.94" width="3.24" height="3.24"/>
<rect fill="#fff" x="41.9" y="35.42" width="3.24" height="3.24"/>
<rect fill="#fff" x="45.14" y="9.5" width="3.24" height="3.24"/>
<rect fill="#fff" x="45.14" y="38.66" width="3.24" height="3.24"/>
<rect fill="#fff" x="45.14" y="87.26" width="3.24" height="3.24"/>
<polygon fill="#fff" points="51.62,35.42 51.62,32.18 51.62,28.94 48.38,28.94 48.38,32.18 45.14,32.18 45.14,35.42 48.38,35.42 "/>
<rect fill="#fff" x="48.38" y="80.78" width="3.24" height="3.24"/>
<polygon fill="#fff" points="61.34,19.22 64.58,19.22 64.58,15.98 64.58,12.74 64.58,9.5 61.34,9.5 61.34,12.74 61.34,15.98 58.1,15.98   58.1,12.74 58.1,9.5 54.86,9.5 54.86,12.74 51.62,12.74 51.62,15.98 54.86,15.98 54.86,19.22 58.1,19.22 "/>
<rect fill="#fff" x="61.34" y="22.46" width="3.24" height="3.24"/>
<rect fill="#fff" x="61.34" y="28.94" width="3.24" height="3.24"/>
<polygon fill="#fff" points="64.58,58.1 64.58,54.86 61.34,54.86 61.34,51.62 58.1,51.62 58.1,54.86 54.86,54.86 51.62,54.86 51.62,51.62   51.62,48.38 51.62,45.14 54.86,45.14 58.1,45.14 58.1,48.38 61.34,48.38 61.34,51.62 64.58,51.62 64.58,48.38 67.82,48.38   67.82,45.14 67.82,41.9 64.58,41.9 64.58,45.14 61.34,45.14 61.34,41.9 61.34,38.66 64.58,38.66 67.82,38.66 71.06,38.66   71.06,35.42 67.82,35.42 64.58,35.42 61.34,35.42 61.34,32.18 58.1,32.18 58.1,28.94 58.1,25.7 54.86,25.7 54.86,28.94 54.86,32.18   54.86,35.42 51.62,35.42 51.62,38.66 51.62,41.9 48.38,41.9 48.38,45.14 45.14,45.14 45.14,41.9 41.9,41.9 38.66,41.9 38.66,38.66   38.66,35.42 38.66,32.18 38.66,28.94 35.42,28.94 35.42,32.18 35.42,35.42 35.42,38.66 35.42,41.9 32.18,41.9 28.94,41.9 25.7,41.9   25.7,45.14 28.94,45.14 32.18,45.14 35.42,45.14 38.66,45.14 38.66,48.38 41.9,48.38 45.14,48.38 48.38,48.38 48.38,51.62   48.38,54.86 48.38,58.1 51.62,58.1 54.86,58.1 58.1,58.1 58.1,61.34 61.34,61.34 61.34,58.1 "/>
<rect fill="#fff" x="64.58" y="51.62" width="3.24" height="3.24"/>
<polygon fill="#fff" points="71.06,51.62 71.06,54.86 67.82,54.86 67.82,58.1 71.06,58.1 74.3,58.1 74.3,54.86 74.3,51.62 74.3,48.38   71.06,48.38 67.82,48.38 67.82,51.62 "/>
<rect fill="#fff" x="67.82" y="67.82" width="3.24" height="3.24"/>
<path fill="#fff" d="M77.54,64.58v-3.24H74.3h-3.24h-3.24V58.1h-3.24v3.24h-3.24v3.24v3.24v3.24H58.1v3.24h-3.24h-3.24h-3.24h-3.24H41.9v3.24  h3.24v3.24h3.24v-3.24h3.24v3.24h3.24h3.24h3.24v3.24v3.24v3.24h3.24v-3.24v-3.24v-3.24h3.24h3.24v3.24h-3.24v3.24v3.24h3.24v-3.24  h3.24h3.24v-3.24H74.3v-3.24v-3.24h3.24v3.24h3.24v-3.24h3.24V74.3h-3.24h-3.24v-3.24h3.24v-3.24h-3.24V64.58z M74.3,71.06v3.24  h-3.24h-3.24h-3.24v-3.24v-3.24v-3.24h3.24h3.24h3.24v3.24V71.06z"/>
<polygon fill="#fff" points="77.54,15.98 74.3,15.98 74.3,19.22 74.3,22.46 74.3,25.7 77.54,25.7 80.78,25.7 84.02,25.7 84.02,22.46   84.02,19.22 84.02,15.98 80.78,15.98 "/>
<rect fill="#fff" x="77.54" y="54.86" width="3.24" height="3.24"/>
<rect fill="#fff" x="77.54" y="87.26" width="3.24" height="3.24"/>
<polygon fill="#fff" points="80.78,61.34 80.78,64.58 80.78,67.82 84.02,67.82 84.02,64.58 84.02,61.34 84.02,58.1 80.78,58.1 "/>
<rect fill="#fff" x="80.78" y="80.78" width="3.24" height="3.24"/>
<polygon fill="#fff" points="87.26,38.66 87.26,35.42 84.02,35.42 80.78,35.42 77.54,35.42 77.54,38.66 74.3,38.66 71.06,38.66 71.06,41.9   71.06,45.14 74.3,45.14 74.3,41.9 77.54,41.9 77.54,45.14 77.54,48.38 80.78,48.38 80.78,45.14 80.78,41.9 84.02,41.9 84.02,45.14   87.26,45.14 87.26,48.38 87.26,51.62 90.5,51.62 90.5,48.38 90.5,45.14 90.5,41.9 87.26,41.9 "/>
<polygon fill="#fff" points="84.02,54.86 84.02,58.1 87.26,58.1 87.26,61.34 90.5,61.34 90.5,58.1 90.5,54.86 87.26,54.86 87.26,51.62   84.02,51.62 "/>
<polygon fill="#fff" points="87.26,80.78 87.26,84.02 87.26,87.26 87.26,90.5 90.5,90.5 90.5,87.26 90.5,84.02 90.5,80.78 90.5,77.54   87.26,77.54 84.02,77.54 84.02,80.78 "/>
<path fill="#fff" d="M87.26,9.5h-3.24h-3.24h-3.24H74.3h-3.24h-3.24v3.24v3.24v3.24v3.24v3.24v3.24v3.24h3.24h3.24h3.24h3.24h3.24h3.24h3.24  v-3.24V25.7v-3.24v-3.24v-3.24v-3.24V9.5H87.26z M87.26,15.98v3.24v3.24v3.24v3.24h-3.24h-3.24h-3.24H74.3h-3.24V25.7v-3.24v-3.24  v-3.24v-3.24h3.24h3.24h3.24h3.24h3.24V15.98z"/>
<rect fill="#fff" x="87.26" y="67.82" width="3.24" height="3.24"/>
</svg>