<?xml version="1.0" encoding="utf-8"?>
<!-- Generator: Adobe Illustrator 16.2.1, SVG Export Plug-In . SVG Version: 6.00 Build 0)  -->
<!DOCTYPE svg PUBLIC "-//W3C//DTD SVG 1.1//EN" "http://www.w3.org/Graphics/SVG/1.1/DTD/svg11.dtd">
<svg version="1.1" id="Layer_1" xmlns="http://www.w3.org/2000/svg" xmlns:xlink="http://www.w3.org/1999/xlink" x="0px" y="0px"
	 width="73.83px" height="60px" viewBox="0 0 73.83 60" enable-background="new 0 0 73.83 60" xml:space="preserve">
<path fill="#DDDDDD" d="M73.83,7.103c-2.717,1.205-5.636,2.019-8.699,2.385c3.127-1.875,5.528-4.843,6.659-8.38
	c-2.927,1.736-6.168,2.997-9.618,3.676C59.408,1.839,55.472,0,51.115,0C42.75,0,35.968,6.782,35.968,15.146
	c0,1.187,0.134,2.343,0.392,3.452c-12.588-0.632-23.75-6.662-31.22-15.826c-1.304,2.237-2.051,4.839-2.051,7.615
	c0,5.255,2.674,9.892,6.738,12.608c-2.483-0.079-4.818-0.76-6.86-1.895c-0.001,0.063-0.001,0.126-0.001,0.19
	c0,7.339,5.221,13.46,12.15,14.852c-1.271,0.347-2.609,0.531-3.991,0.531c-0.976,0-1.925-0.095-2.85-0.271
	c1.928,6.018,7.521,10.397,14.15,10.52c-5.184,4.062-11.715,6.483-18.812,6.483c-1.223,0-2.428-0.071-3.613-0.212
	C6.704,57.492,14.666,60,23.219,60c27.861,0,43.096-23.081,43.096-43.098c0-0.657-0.015-1.31-0.044-1.959
	C69.231,12.808,71.799,10.14,73.83,7.103z"/>
</svg>
